<svg data-v-423bf9ae="" xmlns="http://www.w3.org/2000/svg" viewBox="0 0 237.5510310757882 60" class="font"><!----><!----><!----><g data-v-423bf9ae="" id="e60d607d-ce09-4738-b52c-538ae567cf69" fill="#010408" transform="matrix(5.830903811703725,0,0,5.830903811703725,-9.15451547723714,-20.34985459687241)"><path d="M2.57 4.55L2.57 13.64L1.57 13.64L1.57 3.63L4.04 3.63L4.04 3.63Q4.76 3.63 5.42 3.82L5.42 3.82L5.42 3.82Q6.08 4.02 6.57 4.40L6.57 4.40L6.57 4.40Q7.07 4.79 7.36 5.36L7.36 5.36L7.36 5.36Q7.66 5.93 7.66 6.70L7.66 6.70L7.66 6.70Q7.66 7.24 7.51 7.70L7.51 7.70L7.51 7.70Q7.36 8.16 7.11 8.53L7.11 8.53L7.11 8.53Q6.85 8.90 6.51 9.19L6.51 9.19L6.51 9.19Q6.17 9.47 5.78 9.67L5.78 9.67L5.78 9.67Q5.39 9.86 4.98 9.96L4.98 9.96L4.98 9.96Q4.56 10.06 4.16 10.06L4.16 10.06L4.16 10.06Q4.08 10.06 3.96 10.06L3.96 10.06L3.96 10.06Q3.85 10.06 3.71 10.04L3.71 10.04L3.77 9.13L3.77 9.13Q3.86 9.15 3.98 9.15L3.98 9.15L3.98 9.15Q4.09 9.15 4.19 9.15L4.19 9.15L4.19 9.15Q4.68 9.15 5.12 9.02L5.12 9.02L5.12 9.02Q5.56 8.88 5.89 8.60L5.89 8.60L5.89 8.60Q6.22 8.31 6.42 7.88L6.42 7.88L6.42 7.88Q6.61 7.44 6.61 6.84L6.61 6.84L6.61 6.84Q6.61 6.23 6.41 5.80L6.41 5.80L6.41 5.80Q6.21 5.37 5.84 5.09L5.84 5.09L5.84 5.09Q5.47 4.81 4.95 4.68L4.95 4.68L4.95 4.68Q4.42 4.55 3.79 4.55L3.79 4.55L2.57 4.55ZM10.88 3.63L10.88 13.64L9.88 13.64L9.88 3.63L10.88 3.63ZM16.88 13.64L13.13 3.63L14.31 3.63L17.12 11.52L17.43 12.64L17.57 12.64L17.87 11.52L20.69 3.63L21.75 3.63L17.99 13.64L16.88 13.64ZM28.32 12.87L28.32 12.87L28.32 12.87Q29.17 12.87 29.89 12.54L29.89 12.54L29.89 12.54Q30.60 12.21 31.12 11.63L31.12 11.63L31.12 11.63Q31.64 11.06 31.93 10.28L31.93 10.28L31.93 10.28Q32.22 9.50 32.22 8.60L32.22 8.60L32.22 8.60Q32.22 7.66 31.91 6.89L31.91 6.89L31.91 6.89Q31.60 6.12 31.07 5.57L31.07 5.57L31.07 5.57Q30.54 5.02 29.83 4.71L29.83 4.71L29.83 4.71Q29.11 4.41 28.31 4.41L28.31 4.41L28.31 4.41Q27.46 4.41 26.75 4.75L26.75 4.75L26.75 4.75Q26.03 5.09 25.52 5.67L25.52 5.67L25.52 5.67Q25.01 6.25 24.72 7.04L24.72 7.04L24.72 7.04Q24.43 7.83 24.43 8.72L24.43 8.72L24.43 8.72Q24.43 9.65 24.74 10.41L24.74 10.41L24.74 10.41Q25.05 11.18 25.57 11.72L25.57 11.72L25.57 11.72Q26.10 12.26 26.81 12.56L26.81 12.56L26.81 12.56Q27.52 12.87 28.32 12.87ZM28.18 13.78L28.18 13.78L28.18 13.78Q27.55 13.78 26.95 13.62L26.95 13.62L26.95 13.62Q26.35 13.46 25.81 13.16L25.81 13.16L25.81 13.16Q25.28 12.87 24.83 12.43L24.83 12.43L24.83 12.43Q24.38 12.00 24.06 11.45L24.06 11.45L24.06 11.45Q23.74 10.90 23.56 10.25L23.56 10.25L23.56 10.25Q23.39 9.60 23.39 8.85L23.39 8.85L23.39 8.85Q23.39 8.08 23.58 7.39L23.58 7.39L23.58 7.39Q23.77 6.69 24.11 6.10L24.11 6.10L24.11 6.10Q24.46 5.50 24.93 5.02L24.93 5.02L24.93 5.02Q25.41 4.54 25.98 4.20L25.98 4.20L25.98 4.20Q26.54 3.86 27.19 3.68L27.19 3.68L27.19 3.68Q27.83 3.49 28.51 3.49L28.51 3.49L28.51 3.49Q29.11 3.49 29.71 3.65L29.71 3.65L29.71 3.65Q30.30 3.80 30.83 4.09L30.83 4.09L30.83 4.09Q31.36 4.39 31.80 4.82L31.80 4.82L31.80 4.82Q32.25 5.24 32.58 5.79L32.58 5.79L32.58 5.79Q32.90 6.34 33.09 7L33.09 7L33.09 7Q33.27 7.66 33.27 8.42L33.27 8.42L33.27 8.42Q33.27 9.19 33.09 9.88L33.09 9.88L33.09 9.88Q32.90 10.58 32.56 11.17L32.56 11.17L32.56 11.17Q32.22 11.76 31.76 12.25L31.76 12.25L31.76 12.25Q31.29 12.73 30.72 13.07L30.72 13.07L30.72 13.07Q30.16 13.41 29.51 13.60L29.51 13.60L29.51 13.60Q28.87 13.78 28.18 13.78ZM38.75 4.55L38.75 13.64L37.75 13.64L37.75 4.55L34.29 4.55L34.47 3.63L42.31 3.63L42.13 4.55L38.75 4.55Z"></path></g><!----><!----></svg>